# File created by Blade
# Date/Time:  Thu Jan 22 18:06:27 2015
# Frame Rate: 120.000 fps
#------------------------------------------------------
:FULLY-SPECIFIED
:DEGREES
3326
root 0.429269 32.746872 -2.339648 4.685696 -6.721298 2.440463
RightUpLeg -16.825870 -10.867114 -2.238658
RightLeg 80.914581 -0.000000 -0.000000
RightFoot 0.449029 -8.707739 8.379953
RightToeBase -4.127742 -0.000000 0.000000
LeftUpLeg 0.063900 1.054976 -11.611556
LeftLeg 1.193642 -0.000000 -0.000000
LeftFoot -12.735532 8.426359 -6.260802
LeftToeBase 11.483483 -0.000000 -0.000000
Spine -8.923208 -2.459430 -4.998507
RightShoulder -18.232162 -17.062652 -19.448258
RightArm 23.979286 22.559653 54.388705
RightForeArm -4.543412 -0.000000 21.939551
RightHand 11.372426 -0.000000 0.756419
RightHandThumb1 -24.326973 -0.000000 -32.862282
LeftShoulder -22.475409 4.813060 25.042443
LeftArm 6.411247 -43.953169 -50.304759
LeftForeArm 11.339849 0.000000 66.714379
LeftHand -2.474211 -0.000000 33.283223
LeftHandThumb1 -26.253704 0.000000 33.147579
Head 11.429198 -2.528718 1.944345
3327
root 0.427155 32.746105 -2.339130 4.666346 -6.716161 2.453262
RightUpLeg -16.801008 -10.868591 -2.258229
RightLeg 80.966983 -0.000000 -0.000000
RightFoot 0.430045 -8.710432 8.530140
RightToeBase -4.073181 -0.000000 0.000000
LeftUpLeg 0.089592 1.087022 -11.620815
LeftLeg 1.183442 -0.000000 -0.000000
LeftFoot -12.723571 8.407546 -6.230612
LeftToeBase 11.452498 -0.000000 -0.000000
Spine -8.918908 -2.460217 -5.007060
RightShoulder -18.225203 -17.047916 -19.446629
RightArm 23.944260 22.545635 54.365966
RightForeArm -4.527101 -0.000000 21.947660
RightHand 11.350242 -0.000000 0.760694
RightHandThumb1 -24.326973 -0.000000 -32.862282
LeftShoulder -22.463663 4.820355 25.051175
LeftArm 6.390929 -43.949062 -50.303419
LeftForeArm 11.322378 -0.000000 66.726143
LeftHand -2.497651 -0.000000 33.332704
LeftHandThumb1 -26.253704 0.000000 33.147579
Head 11.432496 -2.568007 1.943956
3328
root 0.425059 32.745330 -2.340225 4.656546 -6.706731 2.465454
RightUpLeg -16.793125 -10.872039 -2.272669
RightLeg 81.023845 -0.000000 -0.000000
RightFoot 0.412574 -8.727425 8.446498
RightToeBase -4.023685 -0.000000 0.000000
LeftUpLeg 0.085312 1.087229 -11.628051
LeftLeg 1.207317 -0.000000 -0.000000
LeftFoot -12.735841 8.394438 -6.236103
LeftToeBase 11.474687 -0.000000 -0.000000
Spine -8.916875 -2.465599 -5.013239
RightShoulder -18.239107 -17.069162 -19.432468
RightArm 23.971709 22.554858 54.374700
RightForeArm -4.522372 0.000000 21.943056
RightHand 11.326803 -0.000000 0.757975
RightHandThumb1 -24.326973 -0.000000 -32.862282
LeftShoulder -22.466120 4.848357 25.045564
LeftArm 6.423937 -43.946536 -50.328003
LeftForeArm 11.313668 -0.000000 66.708499
LeftHand -2.475890 0.000000 33.373166
LeftHandThumb1 -26.253704 0.000000 33.147579
Head 11.421364 -2.629626 1.939612
3329
root 0.422866 32.744464 -2.340657 4.652060 -6.708066 2.471474
RightUpLeg -16.789444 -10.861938 -2.280469
RightLeg 81.063104 -0.000000 -0.000000
RightFoot 0.410577 -8.770661 8.118158
RightToeBase -3.815245 -0.000000 0.000000
LeftUpLeg 0.082359 1.078800 -11.630364
LeftLeg 1.220413 -0.000000 -0.000000
LeftFoot -12.747154 8.403555 -6.239051
LeftToeBase 11.454744 -0.000000 -0.000000
Spine -8.923632 -2.465209 -5.010230
RightShoulder -18.238954 -17.070505 -19.430015
RightArm 23.967632 22.541032 54.360448
RightForeArm -4.510379 -0.000000 21.933886
RightHand 11.341811 -0.000000 0.742644
RightHandThumb1 -24.326973 -0.000000 -32.862282
LeftShoulder -22.476798 4.884327 25.044493
LeftArm 6.447832 -43.930735 -50.354334
LeftForeArm 11.281847 -0.000000 66.707292
LeftHand -2.480973 0.000000 33.283927
LeftHandThumb1 -26.253704 0.000000 33.147579
Head 11.405409 -2.672349 1.942556
3330
root 0.420631 32.744373 -2.341181 4.646930 -6.701439 2.479459
RightUpLeg -16.779426 -10.866340 -2.293914
RightLeg 81.091801 -0.000000 -0.000000
RightFoot 0.418926 -8.754903 8.350161
RightToeBase -4.035557 -0.000000 0.000000
LeftUpLeg 0.078710 1.074682 -11.633756
LeftLeg 1.236579 -0.000000 -0.000000
LeftFoot -12.753854 8.400751 -6.233662
LeftToeBase 11.460075 -0.000000 -0.000000
Spine -8.930587 -2.470970 -5.011157
RightShoulder -18.233601 -17.073832 -19.426362
RightArm 23.959098 22.539403 54.354725
RightForeArm -4.498956 -0.000000 21.937897
RightHand 11.320201 -0.000000 0.746020
RightHandThumb1 -24.326973 -0.000000 -32.862282
LeftShoulder -22.481779 4.875001 25.046688
LeftArm 6.419312 -43.869935 -50.310883
LeftForeArm 11.241973 -0.000000 66.688624
LeftHand -2.431095 0.000000 33.320096
LeftHandThumb1 -26.253704 0.000000 33.147579
Head 11.409431 -2.721017 1.938308
3331
root 0.418399 32.743807 -2.342173 4.644370 -6.696797 2.491272
RightUpLeg -16.777111 -10.863105 -2.308359
RightLeg 81.118456 -0.000000 -0.000000
RightFoot 0.416142 -8.769916 8.344235
RightToeBase -4.048074 -0.000000 0.000000
LeftUpLeg 0.069880 1.051693 -11.638747
LeftLeg 1.255096 -0.000000 -0.000000
LeftFoot -12.766128 8.408141 -6.251280
LeftToeBase 11.463710 -0.000000 -0.000000
Spine -8.935465 -2.481442 -5.015421
RightShoulder -18.247984 -17.097360 -19.419025
RightArm 23.995426 22.520847 54.363649
RightForeArm -4.482345 -0.000000 21.927300
RightHand 11.329988 -0.000000 0.700733
RightHandThumb1 -24.326973 -0.000000 -32.862282
LeftShoulder -22.499549 4.928628 25.024317
LeftArm 6.468596 -43.854369 -50.318274
LeftForeArm 11.206075 0.000000 66.670143
LeftHand -2.444108 0.000000 33.294548
LeftHandThumb1 -26.253704 0.000000 33.147579
Head 11.400358 -2.766839 1.933331
3332
root 0.415905 32.743768 -2.342386 4.642020 -6.698931 2.496526
RightUpLeg -16.772433 -10.850426 -2.318844
RightLeg 81.126805 -0.000000 -0.000000
RightFoot 0.412338 -8.780864 8.170818
RightToeBase -3.789607 -0.000000 0.000000
LeftUpLeg 0.072691 1.085760 -11.640196
LeftLeg 1.253564 -0.000000 -0.000000
LeftFoot -12.760486 8.384911 -6.242801
LeftToeBase 11.416017 -0.000000 -0.000000
Spine -8.944880 -2.474347 -5.012587
RightShoulder -18.253277 -17.093218 -19.417040
RightArm 23.985659 22.530234 54.367072
RightForeArm -4.496144 -0.000000 21.931617
RightHand 11.331240 -0.000000 0.719244
RightHandThumb1 -24.326973 -0.000000 -32.862282
LeftShoulder -22.495994 4.942837 25.015033
LeftArm 6.464121 -43.814612 -50.282331
LeftForeArm 11.183387 -0.000000 66.645509
LeftHand -2.441855 -0.000000 33.374871
LeftHandThumb1 -26.253704 0.000000 33.147579
Head 11.404857 -2.823331 1.930931
3333
root 0.412139 32.743659 -2.342568 4.639985 -6.702011 2.503334
RightUpLeg -16.768278 -10.839809 -2.326488
RightLeg 81.143324 -0.000000 -0.000000
RightFoot 0.416390 -8.802065 8.283402
RightToeBase -3.926872 -0.000000 0.000000
LeftUpLeg 0.079542 1.095328 -11.640456
LeftLeg 1.243312 -0.000000 -0.000000
LeftFoot -12.754555 8.376348 -6.245200
LeftToeBase 11.482193 -0.000000 -0.000000
Spine -8.951214 -2.473959 -5.020119
RightShoulder -18.250601 -17.071883 -19.414445
RightArm 23.954534 22.515500 54.356515
RightForeArm -4.505167 -0.000000 21.923190
RightHand 11.422724 -0.000000 0.715414
RightHandThumb1 -24.326973 -0.000000 -32.862282
LeftShoulder -22.504390 4.960344 25.022211
LeftArm 6.456658 -43.759954 -50.258557
LeftForeArm 11.121164 -0.000000 66.638638
LeftHand -2.472007 -0.000000 33.311710
LeftHandThumb1 -26.253704 0.000000 33.147579
Head 11.397161 -2.859380 1.944889
3334
root 0.409323 32.743903 -2.342698 4.637672 -6.704381 2.510681
RightUpLeg -16.762284 -10.819675 -2.339242
RightLeg 81.141832 -0.000000 -0.000000
RightFoot 0.410297 -8.800462 8.364374
RightToeBase -3.887726 -0.000000 0.000000
LeftUpLeg 0.081375 1.093338 -11.642798
LeftLeg 1.242408 -0.000000 -0.000000
LeftFoot -12.739257 8.385271 -6.227155
LeftToeBase 11.411040 -0.000000 -0.000000
Spine -8.957654 -2.482965 -5.019748
RightShoulder -18.221463 -17.026878 -19.444949
RightArm 23.892290 22.515192 54.377113
RightForeArm -4.483422 -0.000000 21.959108
RightHand 11.388571 -0.000000 0.714315
RightHandThumb1 -24.326973 -0.000000 -32.862282
LeftShoulder -22.513882 4.973692 25.023367
LeftArm 6.431796 -43.698323 -50.209850
LeftForeArm 11.085453 -0.000000 66.608731
LeftHand -2.463883 -0.000000 33.311263
LeftHandThumb1 -26.253704 0.000000 33.147579
Head 11.406038 -2.888977 1.951920
